<?xml version="1.0" encoding="iso-8859-1"?>
<!-- Generator: Adobe Illustrator 18.0.0, SVG Export Plug-In . SVG Version: 6.00 Build 0)  -->
<!DOCTYPE svg PUBLIC "-//W3C//DTD SVG 1.1//EN" "http://www.w3.org/Graphics/SVG/1.1/DTD/svg11.dtd">
<svg version="1.1" id="Capa_1" xmlns="http://www.w3.org/2000/svg" xmlns:xlink="http://www.w3.org/1999/xlink" x="0px" y="0px"
	 viewBox="0 0 43.667 43.667" style="enable-background:new 0 0 43.667 43.667;" xml:space="preserve">
<path d="M42.167,8.166h-4.5v-4.75c0-0.829-0.671-1.5-1.5-1.5c-0.829,0-1.5,0.671-1.5,1.5v4.75H9v-4.75c0-0.829-0.671-1.5-1.5-1.5
	S6,2.588,6,3.416v4.75H1.5c-0.829,0-1.5,0.671-1.5,1.5v12.667c0,0.829,0.671,1.5,1.5,1.5H6V38.75H3.083c-0.829,0-1.5,0.671-1.5,1.5
	c0,0.829,0.671,1.5,1.5,1.5h9.25c0.829,0,1.5-0.671,1.5-1.5c0-0.829-0.671-1.5-1.5-1.5H9v-1.878l12.833-5.729l12.833,5.729v1.878
	h-3.333c-0.829,0-1.5,0.671-1.5,1.5c0,0.829,0.671,1.5,1.5,1.5h9.25c0.829,0,1.5-0.671,1.5-1.5c0-0.829-0.671-1.5-1.5-1.5h-2.917
	V23.833h4.5c0.829,0,1.5-0.671,1.5-1.5V9.666C43.667,8.838,42.995,8.166,42.167,8.166z M3,13.027l3.509,3.296L3,19.62V13.027z
	 M11.999,11.166l-3.3,3.099L5.4,11.166H11.999z M38.266,11.166l-3.3,3.099l-3.3-3.099H38.266z M15.267,12.213l4.376,4.111
	l-4.376,4.111l-4.376-4.111L15.267,12.213z M21.833,18.382l2.61,2.451h-5.219L21.833,18.382z M24.024,16.324l4.376-4.111
	l4.376,4.111L28.4,20.434L24.024,16.324z M21.833,14.266l-3.299-3.099h6.599L21.833,14.266z M8.7,18.382l2.61,2.451H6.09L8.7,18.382
	z M30.848,23.833l-9.015,4.024l-9.015-4.024H30.848z M32.357,20.833l2.61-2.451l2.61,2.451H32.357z M37.157,16.324l3.509-3.296
	v6.592L37.157,16.324z M9,33.587v-8.173l9.154,4.087L9,33.587z M25.513,29.5l9.154-4.087v8.173L25.513,29.5z"/>
<g>
</g>
<g>
</g>
<g>
</g>
<g>
</g>
<g>
</g>
<g>
</g>
<g>
</g>
<g>
</g>
<g>
</g>
<g>
</g>
<g>
</g>
<g>
</g>
<g>
</g>
<g>
</g>
<g>
</g>
</svg>
